<svg xmlns="http://www.w3.org/2000/svg" width="783" height="748" viewBox="0 0 783 748"><rect width="100%" height="100%" fill="#fcfcf9"/><text x="391.5" y="40" font-size="22" text-anchor="middle" fill="#1f2933" font-family="Arial" font-weight="bold">Correlation Heatmap for Core Marine and Weather Features</text><text x="176.0" y="108" font-size="10" text-anchor="middle" fill="#1f2933" font-family="Arial" font-weight="normal" transform="rotate(-35 176.0 108)">risk_proxy_score</text><text x="145" y="144.0" font-size="10" text-anchor="end" fill="#1f2933" font-family="Arial" font-weight="normal">risk_proxy_score</text><text x="218.0" y="108" font-size="10" text-anchor="middle" fill="#1f2933" font-family="Arial" font-weight="normal" transform="rotate(-35 218.0 108)">sigheight</text><text x="145" y="186.0" font-size="10" text-anchor="end" fill="#1f2933" font-family="Arial" font-weight="normal">sigheight</text><text x="260.0" y="108" font-size="10" text-anchor="middle" fill="#1f2933" font-family="Arial" font-weight="normal" transform="rotate(-35 260.0 108)">swellheight</text><text x="145" y="228.0" font-size="10" text-anchor="end" fill="#1f2933" font-family="Arial" font-weight="normal">swellheight</text><text x="302.0" y="108" font-size="10" text-anchor="middle" fill="#1f2933" font-family="Arial" font-weight="normal" transform="rotate(-35 302.0 108)">period</text><text x="145" y="270.0" font-size="10" text-anchor="end" fill="#1f2933" font-family="Arial" font-weight="normal">period</text><text x="344.0" y="108" font-size="10" text-anchor="middle" fill="#1f2933" font-family="Arial" font-weight="normal" transform="rotate(-35 344.0 108)">windspeed</text><text x="145" y="312.0" font-size="10" text-anchor="end" fill="#1f2933" font-family="Arial" font-weight="normal">windspeed</text><text x="386.0" y="108" font-size="10" text-anchor="middle" fill="#1f2933" font-family="Arial" font-weight="normal" transform="rotate(-35 386.0 108)">windgust</text><text x="145" y="354.0" font-size="10" text-anchor="end" fill="#1f2933" font-family="Arial" font-weight="normal">windgust</text><text x="428.0" y="108" font-size="10" text-anchor="middle" fill="#1f2933" font-family="Arial" font-weight="normal" transform="rotate(-35 428.0 108)">pressure</text><text x="145" y="396.0" font-size="10" text-anchor="end" fill="#1f2933" font-family="Arial" font-weight="normal">pressure</text><text x="470.0" y="108" font-size="10" text-anchor="middle" fill="#1f2933" font-family="Arial" font-weight="normal" transform="rotate(-35 470.0 108)">humidity</text><text x="145" y="438.0" font-size="10" text-anchor="end" fill="#1f2933" font-family="Arial" font-weight="normal">humidity</text><text x="512.0" y="108" font-size="10" text-anchor="middle" fill="#1f2933" font-family="Arial" font-weight="normal" transform="rotate(-35 512.0 108)">precipitation</text><text x="145" y="480.0" font-size="10" text-anchor="end" fill="#1f2933" font-family="Arial" font-weight="normal">precipitation</text><text x="554.0" y="108" font-size="10" text-anchor="middle" fill="#1f2933" font-family="Arial" font-weight="normal" transform="rotate(-35 554.0 108)">cloudcover</text><text x="145" y="522.0" font-size="10" text-anchor="end" fill="#1f2933" font-family="Arial" font-weight="normal">cloudcover</text><text x="596.0" y="108" font-size="10" text-anchor="middle" fill="#1f2933" font-family="Arial" font-weight="normal" transform="rotate(-35 596.0 108)">watertemp</text><text x="145" y="564.0" font-size="10" text-anchor="end" fill="#1f2933" font-family="Arial" font-weight="normal">watertemp</text><text x="638.0" y="108" font-size="10" text-anchor="middle" fill="#1f2933" font-family="Arial" font-weight="normal" transform="rotate(-35 638.0 108)">tide_height_range</text><text x="145" y="606.0" font-size="10" text-anchor="end" fill="#1f2933" font-family="Arial" font-weight="normal">tide_height_range</text><text x="680.0" y="108" font-size="10" text-anchor="middle" fill="#1f2933" font-family="Arial" font-weight="normal" transform="rotate(-35 680.0 108)">maxtemp</text><text x="145" y="648.0" font-size="10" text-anchor="end" fill="#1f2933" font-family="Arial" font-weight="normal">maxtemp</text><text x="722.0" y="108" font-size="10" text-anchor="middle" fill="#1f2933" font-family="Arial" font-weight="normal" transform="rotate(-35 722.0 108)">mintemp</text><text x="145" y="690.0" font-size="10" text-anchor="end" fill="#1f2933" font-family="Arial" font-weight="normal">mintemp</text><rect x="155" y="120" width="42" height="42" fill="rgb(220,135,135)" stroke="#ffffff"/><text x="176.0" y="145.0" font-size="10" text-anchor="middle" fill="#1f2933" font-family="Arial" font-weight="normal">1.00</text><rect x="197" y="120" width="42" height="42" fill="rgb(220,158,158)" stroke="#ffffff"/><text x="218.0" y="145.0" font-size="10" text-anchor="middle" fill="#1f2933" font-family="Arial" font-weight="normal">0.81</text><rect x="239" y="120" width="42" height="42" fill="rgb(220,151,151)" stroke="#ffffff"/><text x="260.0" y="145.0" font-size="10" text-anchor="middle" fill="#1f2933" font-family="Arial" font-weight="normal">0.86</text><rect x="281" y="120" width="42" height="42" fill="rgb(220,198,198)" stroke="#ffffff"/><text x="302.0" y="145.0" font-size="10" text-anchor="middle" fill="#1f2933" font-family="Arial" font-weight="normal">0.47</text><rect x="323" y="120" width="42" height="42" fill="rgb(220,171,171)" stroke="#ffffff"/><text x="344.0" y="145.0" font-size="10" text-anchor="middle" fill="#1f2933" font-family="Arial" font-weight="normal">0.70</text><rect x="365" y="120" width="42" height="42" fill="rgb(220,187,187)" stroke="#ffffff"/><text x="386.0" y="145.0" font-size="10" text-anchor="middle" fill="#1f2933" font-family="Arial" font-weight="normal">0.56</text><rect x="407" y="120" width="42" height="42" fill="rgb(241,241,220)" stroke="#ffffff"/><text x="428.0" y="145.0" font-size="10" text-anchor="middle" fill="#1f2933" font-family="Arial" font-weight="normal">-0.11</text><rect x="449" y="120" width="42" height="42" fill="rgb(250,250,220)" stroke="#ffffff"/><text x="470.0" y="145.0" font-size="10" text-anchor="middle" fill="#1f2933" font-family="Arial" font-weight="normal">-0.04</text><rect x="491" y="120" width="42" height="42" fill="rgb(220,252,252)" stroke="#ffffff"/><text x="512.0" y="145.0" font-size="10" text-anchor="middle" fill="#1f2933" font-family="Arial" font-weight="normal">0.02</text><rect x="533" y="120" width="42" height="42" fill="rgb(220,249,249)" stroke="#ffffff"/><text x="554.0" y="145.0" font-size="10" text-anchor="middle" fill="#1f2933" font-family="Arial" font-weight="normal">0.05</text><rect x="575" y="120" width="42" height="42" fill="rgb(236,236,220)" stroke="#ffffff"/><text x="596.0" y="145.0" font-size="10" text-anchor="middle" fill="#1f2933" font-family="Arial" font-weight="normal">-0.15</text><rect x="617" y="120" width="42" height="42" fill="rgb(220,250,250)" stroke="#ffffff"/><text x="638.0" y="145.0" font-size="10" text-anchor="middle" fill="#1f2933" font-family="Arial" font-weight="normal">0.04</text><rect x="659" y="120" width="42" height="42" fill="rgb(227,227,220)" stroke="#ffffff"/><text x="680.0" y="145.0" font-size="10" text-anchor="middle" fill="#1f2933" font-family="Arial" font-weight="normal">-0.23</text><rect x="701" y="120" width="42" height="42" fill="rgb(234,234,220)" stroke="#ffffff"/><text x="722.0" y="145.0" font-size="10" text-anchor="middle" fill="#1f2933" font-family="Arial" font-weight="normal">-0.17</text><rect x="155" y="162" width="42" height="42" fill="rgb(220,158,158)" stroke="#ffffff"/><text x="176.0" y="187.0" font-size="10" text-anchor="middle" fill="#1f2933" font-family="Arial" font-weight="normal">0.81</text><rect x="197" y="162" width="42" height="42" fill="rgb(220,135,135)" stroke="#ffffff"/><text x="218.0" y="187.0" font-size="10" text-anchor="middle" fill="#1f2933" font-family="Arial" font-weight="normal">1.00</text><rect x="239" y="162" width="42" height="42" fill="rgb(220,186,186)" stroke="#ffffff"/><text x="260.0" y="187.0" font-size="10" text-anchor="middle" fill="#1f2933" font-family="Arial" font-weight="normal">0.57</text><rect x="281" y="162" width="42" height="42" fill="rgb(220,242,242)" stroke="#ffffff"/><text x="302.0" y="187.0" font-size="10" text-anchor="middle" fill="#1f2933" font-family="Arial" font-weight="normal">0.10</text><rect x="323" y="162" width="42" height="42" fill="rgb(220,194,194)" stroke="#ffffff"/><text x="344.0" y="187.0" font-size="10" text-anchor="middle" fill="#1f2933" font-family="Arial" font-weight="normal">0.50</text><rect x="365" y="162" width="42" height="42" fill="rgb(220,211,211)" stroke="#ffffff"/><text x="386.0" y="187.0" font-size="10" text-anchor="middle" fill="#1f2933" font-family="Arial" font-weight="normal">0.36</text><rect x="407" y="162" width="42" height="42" fill="rgb(237,237,220)" stroke="#ffffff"/><text x="428.0" y="187.0" font-size="10" text-anchor="middle" fill="#1f2933" font-family="Arial" font-weight="normal">-0.15</text><rect x="449" y="162" width="42" height="42" fill="rgb(220,246,246)" stroke="#ffffff"/><text x="470.0" y="187.0" font-size="10" text-anchor="middle" fill="#1f2933" font-family="Arial" font-weight="normal">0.07</text><rect x="491" y="162" width="42" height="42" fill="rgb(220,249,249)" stroke="#ffffff"/><text x="512.0" y="187.0" font-size="10" text-anchor="middle" fill="#1f2933" font-family="Arial" font-weight="normal">0.05</text><rect x="533" y="162" width="42" height="42" fill="rgb(220,244,244)" stroke="#ffffff"/><text x="554.0" y="187.0" font-size="10" text-anchor="middle" fill="#1f2933" font-family="Arial" font-weight="normal">0.09</text><rect x="575" y="162" width="42" height="42" fill="rgb(226,226,220)" stroke="#ffffff"/><text x="596.0" y="187.0" font-size="10" text-anchor="middle" fill="#1f2933" font-family="Arial" font-weight="normal">-0.24</text><rect x="617" y="162" width="42" height="42" fill="rgb(245,245,220)" stroke="#ffffff"/><text x="638.0" y="187.0" font-size="10" text-anchor="middle" fill="#1f2933" font-family="Arial" font-weight="normal">-0.08</text><rect x="659" y="162" width="42" height="42" fill="rgb(234,234,220)" stroke="#ffffff"/><text x="680.0" y="187.0" font-size="10" text-anchor="middle" fill="#1f2933" font-family="Arial" font-weight="normal">-0.17</text><rect x="701" y="162" width="42" height="42" fill="rgb(247,247,220)" stroke="#ffffff"/><text x="722.0" y="187.0" font-size="10" text-anchor="middle" fill="#1f2933" font-family="Arial" font-weight="normal">-0.07</text><rect x="155" y="204" width="42" height="42" fill="rgb(220,151,151)" stroke="#ffffff"/><text x="176.0" y="229.0" font-size="10" text-anchor="middle" fill="#1f2933" font-family="Arial" font-weight="normal">0.86</text><rect x="197" y="204" width="42" height="42" fill="rgb(220,186,186)" stroke="#ffffff"/><text x="218.0" y="229.0" font-size="10" text-anchor="middle" fill="#1f2933" font-family="Arial" font-weight="normal">0.57</text><rect x="239" y="204" width="42" height="42" fill="rgb(220,135,135)" stroke="#ffffff"/><text x="260.0" y="229.0" font-size="10" text-anchor="middle" fill="#1f2933" font-family="Arial" font-weight="normal">1.00</text><rect x="281" y="204" width="42" height="42" fill="rgb(220,214,214)" stroke="#ffffff"/><text x="302.0" y="229.0" font-size="10" text-anchor="middle" fill="#1f2933" font-family="Arial" font-weight="normal">0.34</text><rect x="323" y="204" width="42" height="42" fill="rgb(220,188,188)" stroke="#ffffff"/><text x="344.0" y="229.0" font-size="10" text-anchor="middle" fill="#1f2933" font-family="Arial" font-weight="normal">0.55</text><rect x="365" y="204" width="42" height="42" fill="rgb(220,206,206)" stroke="#ffffff"/><text x="386.0" y="229.0" font-size="10" text-anchor="middle" fill="#1f2933" font-family="Arial" font-weight="normal">0.41</text><rect x="407" y="204" width="42" height="42" fill="rgb(240,240,220)" stroke="#ffffff"/><text x="428.0" y="229.0" font-size="10" text-anchor="middle" fill="#1f2933" font-family="Arial" font-weight="normal">-0.12</text><rect x="449" y="204" width="42" height="42" fill="rgb(250,250,220)" stroke="#ffffff"/><text x="470.0" y="229.0" font-size="10" text-anchor="middle" fill="#1f2933" font-family="Arial" font-weight="normal">-0.03</text><rect x="491" y="204" width="42" height="42" fill="rgb(220,253,253)" stroke="#ffffff"/><text x="512.0" y="229.0" font-size="10" text-anchor="middle" fill="#1f2933" font-family="Arial" font-weight="normal">0.01</text><rect x="533" y="204" width="42" height="42" fill="rgb(220,250,250)" stroke="#ffffff"/><text x="554.0" y="229.0" font-size="10" text-anchor="middle" fill="#1f2933" font-family="Arial" font-weight="normal">0.04</text><rect x="575" y="204" width="42" height="42" fill="rgb(251,251,220)" stroke="#ffffff"/><text x="596.0" y="229.0" font-size="10" text-anchor="middle" fill="#1f2933" font-family="Arial" font-weight="normal">-0.03</text><rect x="617" y="204" width="42" height="42" fill="rgb(220,250,250)" stroke="#ffffff"/><text x="638.0" y="229.0" font-size="10" text-anchor="middle" fill="#1f2933" font-family="Arial" font-weight="normal">0.04</text><rect x="659" y="204" width="42" height="42" fill="rgb(240,240,220)" stroke="#ffffff"/><text x="680.0" y="229.0" font-size="10" text-anchor="middle" fill="#1f2933" font-family="Arial" font-weight="normal">-0.12</text><rect x="701" y="204" width="42" height="42" fill="rgb(247,247,220)" stroke="#ffffff"/><text x="722.0" y="229.0" font-size="10" text-anchor="middle" fill="#1f2933" font-family="Arial" font-weight="normal">-0.06</text><rect x="155" y="246" width="42" height="42" fill="rgb(220,198,198)" stroke="#ffffff"/><text x="176.0" y="271.0" font-size="10" text-anchor="middle" fill="#1f2933" font-family="Arial" font-weight="normal">0.47</text><rect x="197" y="246" width="42" height="42" fill="rgb(220,242,242)" stroke="#ffffff"/><text x="218.0" y="271.0" font-size="10" text-anchor="middle" fill="#1f2933" font-family="Arial" font-weight="normal">0.10</text><rect x="239" y="246" width="42" height="42" fill="rgb(220,214,214)" stroke="#ffffff"/><text x="260.0" y="271.0" font-size="10" text-anchor="middle" fill="#1f2933" font-family="Arial" font-weight="normal">0.34</text><rect x="281" y="246" width="42" height="42" fill="rgb(220,135,135)" stroke="#ffffff"/><text x="302.0" y="271.0" font-size="10" text-anchor="middle" fill="#1f2933" font-family="Arial" font-weight="normal">1.00</text><rect x="323" y="246" width="42" height="42" fill="rgb(220,252,252)" stroke="#ffffff"/><text x="344.0" y="271.0" font-size="10" text-anchor="middle" fill="#1f2933" font-family="Arial" font-weight="normal">0.02</text><rect x="365" y="246" width="42" height="42" fill="rgb(220,253,253)" stroke="#ffffff"/><text x="386.0" y="271.0" font-size="10" text-anchor="middle" fill="#1f2933" font-family="Arial" font-weight="normal">0.01</text><rect x="407" y="246" width="42" height="42" fill="rgb(220,245,245)" stroke="#ffffff"/><text x="428.0" y="271.0" font-size="10" text-anchor="middle" fill="#1f2933" font-family="Arial" font-weight="normal">0.08</text><rect x="449" y="246" width="42" height="42" fill="rgb(234,234,220)" stroke="#ffffff"/><text x="470.0" y="271.0" font-size="10" text-anchor="middle" fill="#1f2933" font-family="Arial" font-weight="normal">-0.17</text><rect x="491" y="246" width="42" height="42" fill="rgb(245,245,220)" stroke="#ffffff"/><text x="512.0" y="271.0" font-size="10" text-anchor="middle" fill="#1f2933" font-family="Arial" font-weight="normal">-0.08</text><rect x="533" y="246" width="42" height="42" fill="rgb(245,245,220)" stroke="#ffffff"/><text x="554.0" y="271.0" font-size="10" text-anchor="middle" fill="#1f2933" font-family="Arial" font-weight="normal">-0.08</text><rect x="575" y="246" width="42" height="42" fill="rgb(242,242,220)" stroke="#ffffff"/><text x="596.0" y="271.0" font-size="10" text-anchor="middle" fill="#1f2933" font-family="Arial" font-weight="normal">-0.10</text><rect x="617" y="246" width="42" height="42" fill="rgb(220,246,246)" stroke="#ffffff"/><text x="638.0" y="271.0" font-size="10" text-anchor="middle" fill="#1f2933" font-family="Arial" font-weight="normal">0.07</text><rect x="659" y="246" width="42" height="42" fill="rgb(218,218,220)" stroke="#ffffff"/><text x="680.0" y="271.0" font-size="10" text-anchor="middle" fill="#1f2933" font-family="Arial" font-weight="normal">-0.30</text><rect x="701" y="246" width="42" height="42" fill="rgb(203,203,220)" stroke="#ffffff"/><text x="722.0" y="271.0" font-size="10" text-anchor="middle" fill="#1f2933" font-family="Arial" font-weight="normal">-0.43</text><rect x="155" y="288" width="42" height="42" fill="rgb(220,171,171)" stroke="#ffffff"/><text x="176.0" y="313.0" font-size="10" text-anchor="middle" fill="#1f2933" font-family="Arial" font-weight="normal">0.70</text><rect x="197" y="288" width="42" height="42" fill="rgb(220,194,194)" stroke="#ffffff"/><text x="218.0" y="313.0" font-size="10" text-anchor="middle" fill="#1f2933" font-family="Arial" font-weight="normal">0.50</text><rect x="239" y="288" width="42" height="42" fill="rgb(220,188,188)" stroke="#ffffff"/><text x="260.0" y="313.0" font-size="10" text-anchor="middle" fill="#1f2933" font-family="Arial" font-weight="normal">0.55</text><rect x="281" y="288" width="42" height="42" fill="rgb(220,252,252)" stroke="#ffffff"/><text x="302.0" y="313.0" font-size="10" text-anchor="middle" fill="#1f2933" font-family="Arial" font-weight="normal">0.02</text><rect x="323" y="288" width="42" height="42" fill="rgb(220,135,135)" stroke="#ffffff"/><text x="344.0" y="313.0" font-size="10" text-anchor="middle" fill="#1f2933" font-family="Arial" font-weight="normal">1.00</text><rect x="365" y="288" width="42" height="42" fill="rgb(220,153,153)" stroke="#ffffff"/><text x="386.0" y="313.0" font-size="10" text-anchor="middle" fill="#1f2933" font-family="Arial" font-weight="normal">0.85</text><rect x="407" y="288" width="42" height="42" fill="rgb(242,242,220)" stroke="#ffffff"/><text x="428.0" y="313.0" font-size="10" text-anchor="middle" fill="#1f2933" font-family="Arial" font-weight="normal">-0.10</text><rect x="449" y="288" width="42" height="42" fill="rgb(249,249,220)" stroke="#ffffff"/><text x="470.0" y="313.0" font-size="10" text-anchor="middle" fill="#1f2933" font-family="Arial" font-weight="normal">-0.04</text><rect x="491" y="288" width="42" height="42" fill="rgb(220,245,245)" stroke="#ffffff"/><text x="512.0" y="313.0" font-size="10" text-anchor="middle" fill="#1f2933" font-family="Arial" font-weight="normal">0.08</text><rect x="533" y="288" width="42" height="42" fill="rgb(220,242,242)" stroke="#ffffff"/><text x="554.0" y="313.0" font-size="10" text-anchor="middle" fill="#1f2933" font-family="Arial" font-weight="normal">0.11</text><rect x="575" y="288" width="42" height="42" fill="rgb(248,248,220)" stroke="#ffffff"/><text x="596.0" y="313.0" font-size="10" text-anchor="middle" fill="#1f2933" font-family="Arial" font-weight="normal">-0.06</text><rect x="617" y="288" width="42" height="42" fill="rgb(240,240,220)" stroke="#ffffff"/><text x="638.0" y="313.0" font-size="10" text-anchor="middle" fill="#1f2933" font-family="Arial" font-weight="normal">-0.12</text><rect x="659" y="288" width="42" height="42" fill="rgb(242,242,220)" stroke="#ffffff"/><text x="680.0" y="313.0" font-size="10" text-anchor="middle" fill="#1f2933" font-family="Arial" font-weight="normal">-0.11</text><rect x="701" y="288" width="42" height="42" fill="rgb(220,254,254)" stroke="#ffffff"/><text x="722.0" y="313.0" font-size="10" text-anchor="middle" fill="#1f2933" font-family="Arial" font-weight="normal">0.01</text><rect x="155" y="330" width="42" height="42" fill="rgb(220,187,187)" stroke="#ffffff"/><text x="176.0" y="355.0" font-size="10" text-anchor="middle" fill="#1f2933" font-family="Arial" font-weight="normal">0.56</text><rect x="197" y="330" width="42" height="42" fill="rgb(220,211,211)" stroke="#ffffff"/><text x="218.0" y="355.0" font-size="10" text-anchor="middle" fill="#1f2933" font-family="Arial" font-weight="normal">0.36</text><rect x="239" y="330" width="42" height="42" fill="rgb(220,206,206)" stroke="#ffffff"/><text x="260.0" y="355.0" font-size="10" text-anchor="middle" fill="#1f2933" font-family="Arial" font-weight="normal">0.41</text><rect x="281" y="330" width="42" height="42" fill="rgb(220,253,253)" stroke="#ffffff"/><text x="302.0" y="355.0" font-size="10" text-anchor="middle" fill="#1f2933" font-family="Arial" font-weight="normal">0.01</text><rect x="323" y="330" width="42" height="42" fill="rgb(220,153,153)" stroke="#ffffff"/><text x="344.0" y="355.0" font-size="10" text-anchor="middle" fill="#1f2933" font-family="Arial" font-weight="normal">0.85</text><rect x="365" y="330" width="42" height="42" fill="rgb(220,135,135)" stroke="#ffffff"/><text x="386.0" y="355.0" font-size="10" text-anchor="middle" fill="#1f2933" font-family="Arial" font-weight="normal">1.00</text><rect x="407" y="330" width="42" height="42" fill="rgb(249,249,220)" stroke="#ffffff"/><text x="428.0" y="355.0" font-size="10" text-anchor="middle" fill="#1f2933" font-family="Arial" font-weight="normal">-0.04</text><rect x="449" y="330" width="42" height="42" fill="rgb(220,251,251)" stroke="#ffffff"/><text x="470.0" y="355.0" font-size="10" text-anchor="middle" fill="#1f2933" font-family="Arial" font-weight="normal">0.03</text><rect x="491" y="330" width="42" height="42" fill="rgb(220,245,245)" stroke="#ffffff"/><text x="512.0" y="355.0" font-size="10" text-anchor="middle" fill="#1f2933" font-family="Arial" font-weight="normal">0.08</text><rect x="533" y="330" width="42" height="42" fill="rgb(220,241,241)" stroke="#ffffff"/><text x="554.0" y="355.0" font-size="10" text-anchor="middle" fill="#1f2933" font-family="Arial" font-weight="normal">0.12</text><rect x="575" y="330" width="42" height="42" fill="rgb(247,247,220)" stroke="#ffffff"/><text x="596.0" y="355.0" font-size="10" text-anchor="middle" fill="#1f2933" font-family="Arial" font-weight="normal">-0.07</text><rect x="617" y="330" width="42" height="42" fill="rgb(237,237,220)" stroke="#ffffff"/><text x="638.0" y="355.0" font-size="10" text-anchor="middle" fill="#1f2933" font-family="Arial" font-weight="normal">-0.15</text><rect x="659" y="330" width="42" height="42" fill="rgb(242,242,220)" stroke="#ffffff"/><text x="680.0" y="355.0" font-size="10" text-anchor="middle" fill="#1f2933" font-family="Arial" font-weight="normal">-0.10</text><rect x="701" y="330" width="42" height="42" fill="rgb(252,252,220)" stroke="#ffffff"/><text x="722.0" y="355.0" font-size="10" text-anchor="middle" fill="#1f2933" font-family="Arial" font-weight="normal">-0.02</text><rect x="155" y="372" width="42" height="42" fill="rgb(241,241,220)" stroke="#ffffff"/><text x="176.0" y="397.0" font-size="10" text-anchor="middle" fill="#1f2933" font-family="Arial" font-weight="normal">-0.11</text><rect x="197" y="372" width="42" height="42" fill="rgb(237,237,220)" stroke="#ffffff"/><text x="218.0" y="397.0" font-size="10" text-anchor="middle" fill="#1f2933" font-family="Arial" font-weight="normal">-0.15</text><rect x="239" y="372" width="42" height="42" fill="rgb(240,240,220)" stroke="#ffffff"/><text x="260.0" y="397.0" font-size="10" text-anchor="middle" fill="#1f2933" font-family="Arial" font-weight="normal">-0.12</text><rect x="281" y="372" width="42" height="42" fill="rgb(220,245,245)" stroke="#ffffff"/><text x="302.0" y="397.0" font-size="10" text-anchor="middle" fill="#1f2933" font-family="Arial" font-weight="normal">0.08</text><rect x="323" y="372" width="42" height="42" fill="rgb(242,242,220)" stroke="#ffffff"/><text x="344.0" y="397.0" font-size="10" text-anchor="middle" fill="#1f2933" font-family="Arial" font-weight="normal">-0.10</text><rect x="365" y="372" width="42" height="42" fill="rgb(249,249,220)" stroke="#ffffff"/><text x="386.0" y="397.0" font-size="10" text-anchor="middle" fill="#1f2933" font-family="Arial" font-weight="normal">-0.04</text><rect x="407" y="372" width="42" height="42" fill="rgb(220,135,135)" stroke="#ffffff"/><text x="428.0" y="397.0" font-size="10" text-anchor="middle" fill="#1f2933" font-family="Arial" font-weight="normal">1.00</text><rect x="449" y="372" width="42" height="42" fill="rgb(220,252,252)" stroke="#ffffff"/><text x="470.0" y="397.0" font-size="10" text-anchor="middle" fill="#1f2933" font-family="Arial" font-weight="normal">0.02</text><rect x="491" y="372" width="42" height="42" fill="rgb(237,237,220)" stroke="#ffffff"/><text x="512.0" y="397.0" font-size="10" text-anchor="middle" fill="#1f2933" font-family="Arial" font-weight="normal">-0.14</text><rect x="533" y="372" width="42" height="42" fill="rgb(220,245,245)" stroke="#ffffff"/><text x="554.0" y="397.0" font-size="10" text-anchor="middle" fill="#1f2933" font-family="Arial" font-weight="normal">0.08</text><rect x="575" y="372" width="42" height="42" fill="rgb(224,224,220)" stroke="#ffffff"/><text x="596.0" y="397.0" font-size="10" text-anchor="middle" fill="#1f2933" font-family="Arial" font-weight="normal">-0.25</text><rect x="617" y="372" width="42" height="42" fill="rgb(254,254,220)" stroke="#ffffff"/><text x="638.0" y="397.0" font-size="10" text-anchor="middle" fill="#1f2933" font-family="Arial" font-weight="normal">-0.01</text><rect x="659" y="372" width="42" height="42" fill="rgb(195,195,220)" stroke="#ffffff"/><text x="680.0" y="397.0" font-size="10" text-anchor="middle" fill="#1f2933" font-family="Arial" font-weight="normal">-0.50</text><rect x="701" y="372" width="42" height="42" fill="rgb(205,205,220)" stroke="#ffffff"/><text x="722.0" y="397.0" font-size="10" text-anchor="middle" fill="#1f2933" font-family="Arial" font-weight="normal">-0.41</text><rect x="155" y="414" width="42" height="42" fill="rgb(250,250,220)" stroke="#ffffff"/><text x="176.0" y="439.0" font-size="10" text-anchor="middle" fill="#1f2933" font-family="Arial" font-weight="normal">-0.04</text><rect x="197" y="414" width="42" height="42" fill="rgb(220,246,246)" stroke="#ffffff"/><text x="218.0" y="439.0" font-size="10" text-anchor="middle" fill="#1f2933" font-family="Arial" font-weight="normal">0.07</text><rect x="239" y="414" width="42" height="42" fill="rgb(250,250,220)" stroke="#ffffff"/><text x="260.0" y="439.0" font-size="10" text-anchor="middle" fill="#1f2933" font-family="Arial" font-weight="normal">-0.03</text><rect x="281" y="414" width="42" height="42" fill="rgb(234,234,220)" stroke="#ffffff"/><text x="302.0" y="439.0" font-size="10" text-anchor="middle" fill="#1f2933" font-family="Arial" font-weight="normal">-0.17</text><rect x="323" y="414" width="42" height="42" fill="rgb(249,249,220)" stroke="#ffffff"/><text x="344.0" y="439.0" font-size="10" text-anchor="middle" fill="#1f2933" font-family="Arial" font-weight="normal">-0.04</text><rect x="365" y="414" width="42" height="42" fill="rgb(220,251,251)" stroke="#ffffff"/><text x="386.0" y="439.0" font-size="10" text-anchor="middle" fill="#1f2933" font-family="Arial" font-weight="normal">0.03</text><rect x="407" y="414" width="42" height="42" fill="rgb(220,252,252)" stroke="#ffffff"/><text x="428.0" y="439.0" font-size="10" text-anchor="middle" fill="#1f2933" font-family="Arial" font-weight="normal">0.02</text><rect x="449" y="414" width="42" height="42" fill="rgb(220,135,135)" stroke="#ffffff"/><text x="470.0" y="439.0" font-size="10" text-anchor="middle" fill="#1f2933" font-family="Arial" font-weight="normal">1.00</text><rect x="491" y="414" width="42" height="42" fill="rgb(220,224,224)" stroke="#ffffff"/><text x="512.0" y="439.0" font-size="10" text-anchor="middle" fill="#1f2933" font-family="Arial" font-weight="normal">0.26</text><rect x="533" y="414" width="42" height="42" fill="rgb(220,202,202)" stroke="#ffffff"/><text x="554.0" y="439.0" font-size="10" text-anchor="middle" fill="#1f2933" font-family="Arial" font-weight="normal">0.44</text><rect x="575" y="414" width="42" height="42" fill="rgb(241,241,220)" stroke="#ffffff"/><text x="596.0" y="439.0" font-size="10" text-anchor="middle" fill="#1f2933" font-family="Arial" font-weight="normal">-0.11</text><rect x="617" y="414" width="42" height="42" fill="rgb(251,251,220)" stroke="#ffffff"/><text x="638.0" y="439.0" font-size="10" text-anchor="middle" fill="#1f2933" font-family="Arial" font-weight="normal">-0.03</text><rect x="659" y="414" width="42" height="42" fill="rgb(220,253,253)" stroke="#ffffff"/><text x="680.0" y="439.0" font-size="10" text-anchor="middle" fill="#1f2933" font-family="Arial" font-weight="normal">0.01</text><rect x="701" y="414" width="42" height="42" fill="rgb(220,221,221)" stroke="#ffffff"/><text x="722.0" y="439.0" font-size="10" text-anchor="middle" fill="#1f2933" font-family="Arial" font-weight="normal">0.28</text><rect x="155" y="456" width="42" height="42" fill="rgb(220,252,252)" stroke="#ffffff"/><text x="176.0" y="481.0" font-size="10" text-anchor="middle" fill="#1f2933" font-family="Arial" font-weight="normal">0.02</text><rect x="197" y="456" width="42" height="42" fill="rgb(220,249,249)" stroke="#ffffff"/><text x="218.0" y="481.0" font-size="10" text-anchor="middle" fill="#1f2933" font-family="Arial" font-weight="normal">0.05</text><rect x="239" y="456" width="42" height="42" fill="rgb(220,253,253)" stroke="#ffffff"/><text x="260.0" y="481.0" font-size="10" text-anchor="middle" fill="#1f2933" font-family="Arial" font-weight="normal">0.01</text><rect x="281" y="456" width="42" height="42" fill="rgb(245,245,220)" stroke="#ffffff"/><text x="302.0" y="481.0" font-size="10" text-anchor="middle" fill="#1f2933" font-family="Arial" font-weight="normal">-0.08</text><rect x="323" y="456" width="42" height="42" fill="rgb(220,245,245)" stroke="#ffffff"/><text x="344.0" y="481.0" font-size="10" text-anchor="middle" fill="#1f2933" font-family="Arial" font-weight="normal">0.08</text><rect x="365" y="456" width="42" height="42" fill="rgb(220,245,245)" stroke="#ffffff"/><text x="386.0" y="481.0" font-size="10" text-anchor="middle" fill="#1f2933" font-family="Arial" font-weight="normal">0.08</text><rect x="407" y="456" width="42" height="42" fill="rgb(237,237,220)" stroke="#ffffff"/><text x="428.0" y="481.0" font-size="10" text-anchor="middle" fill="#1f2933" font-family="Arial" font-weight="normal">-0.14</text><rect x="449" y="456" width="42" height="42" fill="rgb(220,224,224)" stroke="#ffffff"/><text x="470.0" y="481.0" font-size="10" text-anchor="middle" fill="#1f2933" font-family="Arial" font-weight="normal">0.26</text><rect x="491" y="456" width="42" height="42" fill="rgb(220,135,135)" stroke="#ffffff"/><text x="512.0" y="481.0" font-size="10" text-anchor="middle" fill="#1f2933" font-family="Arial" font-weight="normal">1.00</text><rect x="533" y="456" width="42" height="42" fill="rgb(220,214,214)" stroke="#ffffff"/><text x="554.0" y="481.0" font-size="10" text-anchor="middle" fill="#1f2933" font-family="Arial" font-weight="normal">0.33</text><rect x="575" y="456" width="42" height="42" fill="rgb(220,252,252)" stroke="#ffffff"/><text x="596.0" y="481.0" font-size="10" text-anchor="middle" fill="#1f2933" font-family="Arial" font-weight="normal">0.02</text><rect x="617" y="456" width="42" height="42" fill="rgb(241,241,220)" stroke="#ffffff"/><text x="638.0" y="481.0" font-size="10" text-anchor="middle" fill="#1f2933" font-family="Arial" font-weight="normal">-0.11</text><rect x="659" y="456" width="42" height="42" fill="rgb(252,252,220)" stroke="#ffffff"/><text x="680.0" y="481.0" font-size="10" text-anchor="middle" fill="#1f2933" font-family="Arial" font-weight="normal">-0.02</text><rect x="701" y="456" width="42" height="42" fill="rgb(220,239,239)" stroke="#ffffff"/><text x="722.0" y="481.0" font-size="10" text-anchor="middle" fill="#1f2933" font-family="Arial" font-weight="normal">0.13</text><rect x="155" y="498" width="42" height="42" fill="rgb(220,249,249)" stroke="#ffffff"/><text x="176.0" y="523.0" font-size="10" text-anchor="middle" fill="#1f2933" font-family="Arial" font-weight="normal">0.05</text><rect x="197" y="498" width="42" height="42" fill="rgb(220,244,244)" stroke="#ffffff"/><text x="218.0" y="523.0" font-size="10" text-anchor="middle" fill="#1f2933" font-family="Arial" font-weight="normal">0.09</text><rect x="239" y="498" width="42" height="42" fill="rgb(220,250,250)" stroke="#ffffff"/><text x="260.0" y="523.0" font-size="10" text-anchor="middle" fill="#1f2933" font-family="Arial" font-weight="normal">0.04</text><rect x="281" y="498" width="42" height="42" fill="rgb(245,245,220)" stroke="#ffffff"/><text x="302.0" y="523.0" font-size="10" text-anchor="middle" fill="#1f2933" font-family="Arial" font-weight="normal">-0.08</text><rect x="323" y="498" width="42" height="42" fill="rgb(220,242,242)" stroke="#ffffff"/><text x="344.0" y="523.0" font-size="10" text-anchor="middle" fill="#1f2933" font-family="Arial" font-weight="normal">0.11</text><rect x="365" y="498" width="42" height="42" fill="rgb(220,241,241)" stroke="#ffffff"/><text x="386.0" y="523.0" font-size="10" text-anchor="middle" fill="#1f2933" font-family="Arial" font-weight="normal">0.12</text><rect x="407" y="498" width="42" height="42" fill="rgb(220,245,245)" stroke="#ffffff"/><text x="428.0" y="523.0" font-size="10" text-anchor="middle" fill="#1f2933" font-family="Arial" font-weight="normal">0.08</text><rect x="449" y="498" width="42" height="42" fill="rgb(220,202,202)" stroke="#ffffff"/><text x="470.0" y="523.0" font-size="10" text-anchor="middle" fill="#1f2933" font-family="Arial" font-weight="normal">0.44</text><rect x="491" y="498" width="42" height="42" fill="rgb(220,214,214)" stroke="#ffffff"/><text x="512.0" y="523.0" font-size="10" text-anchor="middle" fill="#1f2933" font-family="Arial" font-weight="normal">0.33</text><rect x="533" y="498" width="42" height="42" fill="rgb(220,135,135)" stroke="#ffffff"/><text x="554.0" y="523.0" font-size="10" text-anchor="middle" fill="#1f2933" font-family="Arial" font-weight="normal">1.00</text><rect x="575" y="498" width="42" height="42" fill="rgb(220,250,250)" stroke="#ffffff"/><text x="596.0" y="523.0" font-size="10" text-anchor="middle" fill="#1f2933" font-family="Arial" font-weight="normal">0.04</text><rect x="617" y="498" width="42" height="42" fill="rgb(232,232,220)" stroke="#ffffff"/><text x="638.0" y="523.0" font-size="10" text-anchor="middle" fill="#1f2933" font-family="Arial" font-weight="normal">-0.19</text><rect x="659" y="498" width="42" height="42" fill="rgb(239,239,220)" stroke="#ffffff"/><text x="680.0" y="523.0" font-size="10" text-anchor="middle" fill="#1f2933" font-family="Arial" font-weight="normal">-0.13</text><rect x="701" y="498" width="42" height="42" fill="rgb(220,225,225)" stroke="#ffffff"/><text x="722.0" y="523.0" font-size="10" text-anchor="middle" fill="#1f2933" font-family="Arial" font-weight="normal">0.24</text><rect x="155" y="540" width="42" height="42" fill="rgb(236,236,220)" stroke="#ffffff"/><text x="176.0" y="565.0" font-size="10" text-anchor="middle" fill="#1f2933" font-family="Arial" font-weight="normal">-0.15</text><rect x="197" y="540" width="42" height="42" fill="rgb(226,226,220)" stroke="#ffffff"/><text x="218.0" y="565.0" font-size="10" text-anchor="middle" fill="#1f2933" font-family="Arial" font-weight="normal">-0.24</text><rect x="239" y="540" width="42" height="42" fill="rgb(251,251,220)" stroke="#ffffff"/><text x="260.0" y="565.0" font-size="10" text-anchor="middle" fill="#1f2933" font-family="Arial" font-weight="normal">-0.03</text><rect x="281" y="540" width="42" height="42" fill="rgb(242,242,220)" stroke="#ffffff"/><text x="302.0" y="565.0" font-size="10" text-anchor="middle" fill="#1f2933" font-family="Arial" font-weight="normal">-0.10</text><rect x="323" y="540" width="42" height="42" fill="rgb(248,248,220)" stroke="#ffffff"/><text x="344.0" y="565.0" font-size="10" text-anchor="middle" fill="#1f2933" font-family="Arial" font-weight="normal">-0.06</text><rect x="365" y="540" width="42" height="42" fill="rgb(247,247,220)" stroke="#ffffff"/><text x="386.0" y="565.0" font-size="10" text-anchor="middle" fill="#1f2933" font-family="Arial" font-weight="normal">-0.07</text><rect x="407" y="540" width="42" height="42" fill="rgb(224,224,220)" stroke="#ffffff"/><text x="428.0" y="565.0" font-size="10" text-anchor="middle" fill="#1f2933" font-family="Arial" font-weight="normal">-0.25</text><rect x="449" y="540" width="42" height="42" fill="rgb(241,241,220)" stroke="#ffffff"/><text x="470.0" y="565.0" font-size="10" text-anchor="middle" fill="#1f2933" font-family="Arial" font-weight="normal">-0.11</text><rect x="491" y="540" width="42" height="42" fill="rgb(220,252,252)" stroke="#ffffff"/><text x="512.0" y="565.0" font-size="10" text-anchor="middle" fill="#1f2933" font-family="Arial" font-weight="normal">0.02</text><rect x="533" y="540" width="42" height="42" fill="rgb(220,250,250)" stroke="#ffffff"/><text x="554.0" y="565.0" font-size="10" text-anchor="middle" fill="#1f2933" font-family="Arial" font-weight="normal">0.04</text><rect x="575" y="540" width="42" height="42" fill="rgb(220,135,135)" stroke="#ffffff"/><text x="596.0" y="565.0" font-size="10" text-anchor="middle" fill="#1f2933" font-family="Arial" font-weight="normal">1.00</text><rect x="617" y="540" width="42" height="42" fill="rgb(220,240,240)" stroke="#ffffff"/><text x="638.0" y="565.0" font-size="10" text-anchor="middle" fill="#1f2933" font-family="Arial" font-weight="normal">0.12</text><rect x="659" y="540" width="42" height="42" fill="rgb(220,196,196)" stroke="#ffffff"/><text x="680.0" y="565.0" font-size="10" text-anchor="middle" fill="#1f2933" font-family="Arial" font-weight="normal">0.48</text><rect x="701" y="540" width="42" height="42" fill="rgb(220,210,210)" stroke="#ffffff"/><text x="722.0" y="565.0" font-size="10" text-anchor="middle" fill="#1f2933" font-family="Arial" font-weight="normal">0.37</text><rect x="155" y="582" width="42" height="42" fill="rgb(220,250,250)" stroke="#ffffff"/><text x="176.0" y="607.0" font-size="10" text-anchor="middle" fill="#1f2933" font-family="Arial" font-weight="normal">0.04</text><rect x="197" y="582" width="42" height="42" fill="rgb(245,245,220)" stroke="#ffffff"/><text x="218.0" y="607.0" font-size="10" text-anchor="middle" fill="#1f2933" font-family="Arial" font-weight="normal">-0.08</text><rect x="239" y="582" width="42" height="42" fill="rgb(220,250,250)" stroke="#ffffff"/><text x="260.0" y="607.0" font-size="10" text-anchor="middle" fill="#1f2933" font-family="Arial" font-weight="normal">0.04</text><rect x="281" y="582" width="42" height="42" fill="rgb(220,246,246)" stroke="#ffffff"/><text x="302.0" y="607.0" font-size="10" text-anchor="middle" fill="#1f2933" font-family="Arial" font-weight="normal">0.07</text><rect x="323" y="582" width="42" height="42" fill="rgb(240,240,220)" stroke="#ffffff"/><text x="344.0" y="607.0" font-size="10" text-anchor="middle" fill="#1f2933" font-family="Arial" font-weight="normal">-0.12</text><rect x="365" y="582" width="42" height="42" fill="rgb(237,237,220)" stroke="#ffffff"/><text x="386.0" y="607.0" font-size="10" text-anchor="middle" fill="#1f2933" font-family="Arial" font-weight="normal">-0.15</text><rect x="407" y="582" width="42" height="42" fill="rgb(254,254,220)" stroke="#ffffff"/><text x="428.0" y="607.0" font-size="10" text-anchor="middle" fill="#1f2933" font-family="Arial" font-weight="normal">-0.01</text><rect x="449" y="582" width="42" height="42" fill="rgb(251,251,220)" stroke="#ffffff"/><text x="470.0" y="607.0" font-size="10" text-anchor="middle" fill="#1f2933" font-family="Arial" font-weight="normal">-0.03</text><rect x="491" y="582" width="42" height="42" fill="rgb(241,241,220)" stroke="#ffffff"/><text x="512.0" y="607.0" font-size="10" text-anchor="middle" fill="#1f2933" font-family="Arial" font-weight="normal">-0.11</text><rect x="533" y="582" width="42" height="42" fill="rgb(232,232,220)" stroke="#ffffff"/><text x="554.0" y="607.0" font-size="10" text-anchor="middle" fill="#1f2933" font-family="Arial" font-weight="normal">-0.19</text><rect x="575" y="582" width="42" height="42" fill="rgb(220,240,240)" stroke="#ffffff"/><text x="596.0" y="607.0" font-size="10" text-anchor="middle" fill="#1f2933" font-family="Arial" font-weight="normal">0.12</text><rect x="617" y="582" width="42" height="42" fill="rgb(220,135,135)" stroke="#ffffff"/><text x="638.0" y="607.0" font-size="10" text-anchor="middle" fill="#1f2933" font-family="Arial" font-weight="normal">1.00</text><rect x="659" y="582" width="42" height="42" fill="rgb(220,237,237)" stroke="#ffffff"/><text x="680.0" y="607.0" font-size="10" text-anchor="middle" fill="#1f2933" font-family="Arial" font-weight="normal">0.14</text><rect x="701" y="582" width="42" height="42" fill="rgb(220,244,244)" stroke="#ffffff"/><text x="722.0" y="607.0" font-size="10" text-anchor="middle" fill="#1f2933" font-family="Arial" font-weight="normal">0.08</text><rect x="155" y="624" width="42" height="42" fill="rgb(227,227,220)" stroke="#ffffff"/><text x="176.0" y="649.0" font-size="10" text-anchor="middle" fill="#1f2933" font-family="Arial" font-weight="normal">-0.23</text><rect x="197" y="624" width="42" height="42" fill="rgb(234,234,220)" stroke="#ffffff"/><text x="218.0" y="649.0" font-size="10" text-anchor="middle" fill="#1f2933" font-family="Arial" font-weight="normal">-0.17</text><rect x="239" y="624" width="42" height="42" fill="rgb(240,240,220)" stroke="#ffffff"/><text x="260.0" y="649.0" font-size="10" text-anchor="middle" fill="#1f2933" font-family="Arial" font-weight="normal">-0.12</text><rect x="281" y="624" width="42" height="42" fill="rgb(218,218,220)" stroke="#ffffff"/><text x="302.0" y="649.0" font-size="10" text-anchor="middle" fill="#1f2933" font-family="Arial" font-weight="normal">-0.30</text><rect x="323" y="624" width="42" height="42" fill="rgb(242,242,220)" stroke="#ffffff"/><text x="344.0" y="649.0" font-size="10" text-anchor="middle" fill="#1f2933" font-family="Arial" font-weight="normal">-0.11</text><rect x="365" y="624" width="42" height="42" fill="rgb(242,242,220)" stroke="#ffffff"/><text x="386.0" y="649.0" font-size="10" text-anchor="middle" fill="#1f2933" font-family="Arial" font-weight="normal">-0.10</text><rect x="407" y="624" width="42" height="42" fill="rgb(195,195,220)" stroke="#ffffff"/><text x="428.0" y="649.0" font-size="10" text-anchor="middle" fill="#1f2933" font-family="Arial" font-weight="normal">-0.50</text><rect x="449" y="624" width="42" height="42" fill="rgb(220,253,253)" stroke="#ffffff"/><text x="470.0" y="649.0" font-size="10" text-anchor="middle" fill="#1f2933" font-family="Arial" font-weight="normal">0.01</text><rect x="491" y="624" width="42" height="42" fill="rgb(252,252,220)" stroke="#ffffff"/><text x="512.0" y="649.0" font-size="10" text-anchor="middle" fill="#1f2933" font-family="Arial" font-weight="normal">-0.02</text><rect x="533" y="624" width="42" height="42" fill="rgb(239,239,220)" stroke="#ffffff"/><text x="554.0" y="649.0" font-size="10" text-anchor="middle" fill="#1f2933" font-family="Arial" font-weight="normal">-0.13</text><rect x="575" y="624" width="42" height="42" fill="rgb(220,196,196)" stroke="#ffffff"/><text x="596.0" y="649.0" font-size="10" text-anchor="middle" fill="#1f2933" font-family="Arial" font-weight="normal">0.48</text><rect x="617" y="624" width="42" height="42" fill="rgb(220,237,237)" stroke="#ffffff"/><text x="638.0" y="649.0" font-size="10" text-anchor="middle" fill="#1f2933" font-family="Arial" font-weight="normal">0.14</text><rect x="659" y="624" width="42" height="42" fill="rgb(220,135,135)" stroke="#ffffff"/><text x="680.0" y="649.0" font-size="10" text-anchor="middle" fill="#1f2933" font-family="Arial" font-weight="normal">1.00</text><rect x="701" y="624" width="42" height="42" fill="rgb(220,160,160)" stroke="#ffffff"/><text x="722.0" y="649.0" font-size="10" text-anchor="middle" fill="#1f2933" font-family="Arial" font-weight="normal">0.78</text><rect x="155" y="666" width="42" height="42" fill="rgb(234,234,220)" stroke="#ffffff"/><text x="176.0" y="691.0" font-size="10" text-anchor="middle" fill="#1f2933" font-family="Arial" font-weight="normal">-0.17</text><rect x="197" y="666" width="42" height="42" fill="rgb(247,247,220)" stroke="#ffffff"/><text x="218.0" y="691.0" font-size="10" text-anchor="middle" fill="#1f2933" font-family="Arial" font-weight="normal">-0.07</text><rect x="239" y="666" width="42" height="42" fill="rgb(247,247,220)" stroke="#ffffff"/><text x="260.0" y="691.0" font-size="10" text-anchor="middle" fill="#1f2933" font-family="Arial" font-weight="normal">-0.06</text><rect x="281" y="666" width="42" height="42" fill="rgb(203,203,220)" stroke="#ffffff"/><text x="302.0" y="691.0" font-size="10" text-anchor="middle" fill="#1f2933" font-family="Arial" font-weight="normal">-0.43</text><rect x="323" y="666" width="42" height="42" fill="rgb(220,254,254)" stroke="#ffffff"/><text x="344.0" y="691.0" font-size="10" text-anchor="middle" fill="#1f2933" font-family="Arial" font-weight="normal">0.01</text><rect x="365" y="666" width="42" height="42" fill="rgb(252,252,220)" stroke="#ffffff"/><text x="386.0" y="691.0" font-size="10" text-anchor="middle" fill="#1f2933" font-family="Arial" font-weight="normal">-0.02</text><rect x="407" y="666" width="42" height="42" fill="rgb(205,205,220)" stroke="#ffffff"/><text x="428.0" y="691.0" font-size="10" text-anchor="middle" fill="#1f2933" font-family="Arial" font-weight="normal">-0.41</text><rect x="449" y="666" width="42" height="42" fill="rgb(220,221,221)" stroke="#ffffff"/><text x="470.0" y="691.0" font-size="10" text-anchor="middle" fill="#1f2933" font-family="Arial" font-weight="normal">0.28</text><rect x="491" y="666" width="42" height="42" fill="rgb(220,239,239)" stroke="#ffffff"/><text x="512.0" y="691.0" font-size="10" text-anchor="middle" fill="#1f2933" font-family="Arial" font-weight="normal">0.13</text><rect x="533" y="666" width="42" height="42" fill="rgb(220,225,225)" stroke="#ffffff"/><text x="554.0" y="691.0" font-size="10" text-anchor="middle" fill="#1f2933" font-family="Arial" font-weight="normal">0.24</text><rect x="575" y="666" width="42" height="42" fill="rgb(220,210,210)" stroke="#ffffff"/><text x="596.0" y="691.0" font-size="10" text-anchor="middle" fill="#1f2933" font-family="Arial" font-weight="normal">0.37</text><rect x="617" y="666" width="42" height="42" fill="rgb(220,244,244)" stroke="#ffffff"/><text x="638.0" y="691.0" font-size="10" text-anchor="middle" fill="#1f2933" font-family="Arial" font-weight="normal">0.08</text><rect x="659" y="666" width="42" height="42" fill="rgb(220,160,160)" stroke="#ffffff"/><text x="680.0" y="691.0" font-size="10" text-anchor="middle" fill="#1f2933" font-family="Arial" font-weight="normal">0.78</text><rect x="701" y="666" width="42" height="42" fill="rgb(220,135,135)" stroke="#ffffff"/><text x="722.0" y="691.0" font-size="10" text-anchor="middle" fill="#1f2933" font-family="Arial" font-weight="normal">1.00</text></svg>